# This file uses centimeters as units for non-parametric coordinates.

v -0.977789 -0.024947 -8.549811
v -0.494825 -0.024947 -5.500494
v 0.906793 -0.024947 -2.749664
v 3.089864 -0.024947 -0.566594
v 5.840693 -0.024947 0.835024
v 8.890011 -0.024947 1.317987
v -0.977789 12.476755 -8.549811
v -0.494825 12.476755 -5.500494
v 0.906793 12.476755 -2.749664
v 3.089864 12.476755 -0.566594
v 5.840693 12.476755 0.835024
v 8.890011 12.476755 1.317987
v -8.865656 -0.024956 -8.535539
v -8.865444 -0.024956 -5.442199
v -8.865444 12.476745 -5.442199
v -8.865656 12.476745 -8.535539
v -8.864828 -0.024956 -2.609900
v -8.864828 12.476745 -2.609900
v -8.890011 -0.024964 8.520062
v -8.890011 12.476738 8.520062
v 5.724244 -0.024954 8.542310
v 5.724244 12.476747 8.542310
v 8.817583 -0.024954 8.549811
v 8.817583 12.476747 8.549811
vt 0.393994 0.810523
vt 0.393994 0.739074
vt 0.682754 0.739074
vt 0.682754 0.810523
vt 0.393994 0.673654
vt 0.682754 0.673654
vt 0.393994 0.416578
vt 0.682754 0.416578
vt 0.688763 0.825582
vt 0.688764 0.488027
vt 0.977524 0.488027
vt 0.977523 0.825582
vt 0.688764 0.416578
vt 0.977524 0.416578
vt 0.327798 0.709248
vt 0.327798 0.998008
vt 0.257366 0.998008
vt 0.257366 0.709248
vt 0.193828 0.998008
vt 0.193828 0.709248
vt 0.143404 0.998008
vt 0.143404 0.709248
vt 0.001951 0.998008
vt 0.001951 0.709248
vt 0.065489 0.709248
vt 0.065489 0.998008
vt 0.135921 0.709248
vt 0.135921 0.998008
vt 0.001951 0.229915
vt 0.072383 0.218760
vt 0.073730 0.412101
vt 0.002281 0.412106
vt 0.135921 0.186386
vt 0.139149 0.412087
vt 0.186345 0.135962
vt 0.396225 0.412669
vt 0.218719 0.072424
vt 0.396739 0.075114
vt 0.229874 0.001992
vt 0.396912 0.003665
vt 0.727551 0.218760
vt 0.797983 0.229915
vt 0.797653 0.412106
vt 0.726204 0.412101
vt 0.664013 0.186386
vt 0.660785 0.412087
vt 0.613589 0.135962
vt 0.403709 0.412669
vt 0.581215 0.072424
vt 0.403195 0.075114
vt 0.570060 0.001992
vt 0.403021 0.003665
vt 0.387985 0.416578
vt 0.387985 0.705338
vt 0.205793 0.705339
vt 0.205793 0.416579
vt 0.199784 0.416579
vt 0.199784 0.705338
vt 0.032746 0.705338
vt 0.032746 0.416578
vn -1.000000 0.000000 0.000068
vn -1.000000 0.000000 0.000140
vn -1.000000 0.000000 0.000140
vn -1.000000 0.000000 0.000068
vn -0.999998 0.000000 -0.001760
vn -0.999999 0.000000 -0.001760
vn -0.607308 0.000000 0.794467
vn -0.607308 0.000000 0.794467
vn -0.001680 0.000000 0.999999
vn -0.001680 0.000000 0.999999
vn -0.002425 0.000000 0.999997
vn -0.002425 0.000000 0.999997
vn 0.987688 0.000000 -0.156434
vn 0.987688 0.000000 -0.156434
vn 0.951057 0.000000 -0.309017
vn 0.951057 0.000000 -0.309017
vn 0.809017 0.000000 -0.587785
vn 0.809017 0.000000 -0.587785
vn 0.587785 0.000000 -0.809017
vn 0.587785 0.000000 -0.809017
vn 0.309017 0.000000 -0.951057
vn 0.309017 0.000000 -0.951057
vn 0.156434 0.000000 -0.987688
vn 0.156434 0.000000 -0.987688
vn 0.000001 -1.000000 -0.000000
vn 0.000001 -1.000000 -0.000000
vn 0.000001 -1.000000 -0.000000
vn 0.000001 -1.000000 -0.000000
vn -0.000001 1.000000 0.000000
vn -0.000001 1.000000 0.000000
vn -0.000001 1.000000 0.000000
vn -0.000001 1.000000 0.000000
vn -0.001809 0.000000 -0.999998
vn -0.001809 0.000000 -0.999998
vn -0.001809 0.000000 -0.999998
vn -0.001809 0.000000 -0.999998
vn 0.000001 -1.000000 -0.000001
vn 0.000001 -1.000000 -0.000001
vn -0.000001 1.000000 0.000001
vn -0.000001 1.000000 0.000001
vn 0.000001 -1.000000 -0.000001
vn 0.000001 -1.000000 -0.000001
vn -0.000001 1.000000 0.000001
vn -0.000001 1.000000 0.000001
vn 0.000001 -1.000000 -0.000001
vn 0.000001 -1.000000 -0.000001
vn -0.000001 1.000000 0.000001
vn -0.000001 1.000000 0.000001
vn 0.000000 -1.000000 -0.000001
vn 0.000000 -1.000000 -0.000001
vn 0.999950 0.000000 0.010015
vn 0.999950 0.000000 0.010015
vn 0.999950 0.000000 0.010015
vn 0.999950 0.000000 0.010015
vn -0.000000 1.000000 0.000001
vn -0.000000 1.000000 0.000001
s 1
g pCylinder1
f 13/1/1 14/2/2 15/3/3 16/4/4
f 14/2/2 17/5/5 18/6/6 15/3/3
f 17/5/5 19/7/7 20/8/8 18/6/6
f 19/9/7 21/10/9 22/11/10 20/12/8
f 21/10/9 23/13/11 24/14/12 22/11/10
s 2
f 1/15/13 7/16/14 8/17/15 2/18/16
f 2/18/16 8/17/15 9/19/17 3/20/18
f 3/20/18 9/19/17 10/21/19 4/22/20
f 4/23/20 10/24/19 11/25/21 5/26/22
f 5/26/22 11/25/21 12/27/23 6/28/24
s 3
f 1/29/25 2/30/26 14/31/27 13/32/28
s 4
f 8/41/29 7/42/30 16/43/31 15/44/32
s off
f 7/53/33 1/54/34 13/55/35 16/56/36
s 3
f 2/30/26 3/33/37 17/34/38 14/31/27
s 4
f 9/45/39 8/41/29 15/44/32 18/46/40
s 3
f 3/33/37 4/35/41 19/36/42 17/34/38
s 4
f 10/47/43 9/45/39 18/46/40 20/48/44
s 3
f 4/35/41 5/37/45 21/38/46 19/36/42
s 4
f 11/49/47 10/47/43 20/48/44 22/50/48
s 3
f 5/37/45 6/39/49 23/40/50 21/38/46
s off
f 6/57/51 12/58/52 24/59/53 23/60/54
s 4
f 12/51/55 11/49/47 22/50/48 24/52/56
