# 3ds Max Wavefront OBJ Exporter v0.97b - (c)2007 guruware
# File Created: 07.09.2015 14:32:59

mtllib CylinderPendulum.mtl

#
# object Cylinder021
#

v  0.0000 -75.0000 -0.0000
v  0.0000 -69.2910 -28.7013
v  -125.0000 -69.2910 -28.7013
v  -125.0000 -75.0000 -0.0000
v  0.0000 -53.0330 -53.0330
v  -125.0000 -53.0330 -53.0330
v  0.0000 -28.7013 -69.2910
v  -125.0000 -28.7013 -69.2910
v  0.0000 -0.0000 -75.0000
v  -125.0000 0.0000 -75.0000
v  0.0000 28.7013 -69.2910
v  -125.0000 28.7013 -69.2910
v  0.0000 53.0330 -53.0330
v  -125.0000 53.0330 -53.0330
v  0.0000 69.2910 -28.7013
v  -125.0000 69.2910 -28.7013
v  0.0000 75.0000 -0.0000
v  -125.0000 75.0000 -0.0000
v  0.0000 69.2910 28.7012
v  -125.0000 69.2910 28.7012
v  0.0000 53.0330 53.0330
v  -125.0000 53.0330 53.0330
v  0.0000 28.7013 69.2910
v  -125.0000 28.7013 69.2910
v  0.0000 -0.0000 75.0000
v  -125.0000 -0.0000 75.0000
v  0.0000 -28.7013 69.2910
v  -125.0000 -28.7013 69.2910
v  0.0000 -53.0330 53.0330
v  -125.0000 -53.0330 53.0330
v  0.0000 -69.2910 28.7012
v  -125.0000 -69.2910 28.7012
v  125.0000 -75.0000 -0.0000
v  125.0000 -69.2910 -28.7013
v  125.0000 -53.0330 -53.0330
v  125.0000 -28.7013 -69.2910
v  125.0000 -0.0000 -75.0000
v  125.0000 28.7013 -69.2910
v  125.0000 53.0330 -53.0330
v  125.0000 69.2910 -28.7013
v  125.0000 75.0000 -0.0000
v  125.0000 69.2910 28.7012
v  125.0000 53.0330 53.0330
v  125.0000 28.7013 69.2910
v  125.0000 -0.0000 75.0000
v  125.0000 -28.7013 69.2910
v  125.0000 -53.0330 53.0330
v  125.0000 -69.2910 28.7012
v  -125.0000 -89.8440 -0.0000
v  -125.0000 -83.0050 -34.3818
v  -125.0000 -63.5293 -63.5293
v  -125.0000 -34.3818 -83.0050
v  -125.0000 0.0000 -89.8440
v  -125.0000 34.3818 -83.0050
v  -125.0000 63.5293 -63.5293
v  -125.0000 83.0050 -34.3818
v  -125.0000 89.8440 -0.0000
v  -125.0000 83.0050 34.3818
v  -125.0000 63.5293 63.5293
v  -125.0000 34.3818 83.0050
v  -125.0000 -0.0000 89.8440
v  -125.0000 -34.3818 83.0050
v  -125.0000 -63.5293 63.5293
v  -125.0000 -83.0050 34.3818
v  125.0000 -83.0050 -34.3818
v  125.0000 -89.8440 -0.0000
v  125.0000 -63.5293 -63.5293
v  125.0000 -34.3818 -83.0050
v  125.0000 -0.0000 -89.8440
v  125.0000 34.3818 -83.0050
v  125.0000 63.5293 -63.5293
v  125.0000 83.0050 -34.3818
v  125.0000 89.8440 -0.0000
v  125.0000 83.0050 34.3818
v  125.0000 63.5293 63.5293
v  125.0000 34.3818 83.0050
v  125.0000 -0.0000 89.8440
v  125.0000 -34.3818 83.0050
v  125.0000 -63.5293 63.5293
v  125.0000 -83.0050 34.3818
v  -0.0000 -83.0050 -34.3818
v  0.0000 -63.5293 -63.5293
v  0.0000 -34.3818 -83.0050
v  0.0000 -0.0000 -89.8440
v  0.0000 34.3818 -83.0050
v  0.0000 63.5293 -63.5293
v  0.0000 83.0050 -34.3818
v  0.0000 89.8440 -0.0000
v  0.0000 83.0050 34.3818
v  0.0000 63.5293 63.5293
v  0.0000 34.3818 83.0050
v  0.0000 -0.0000 89.8440
v  0.0000 -34.3818 83.0050
v  0.0000 -63.5293 63.5293
v  -0.0000 -83.0050 34.3818
v  -0.0000 -89.8440 -0.0000
v  6.0000 86.5768 -0.0000
v  4.2426 86.5768 -4.2426
v  4.2426 386.5768 -4.2426
v  6.0000 386.5768 -0.0000
v  -0.0000 86.5768 -6.0000
v  -0.0000 386.5768 -6.0000
v  -4.2426 86.5768 -4.2426
v  -4.2427 386.5768 -4.2426
v  -6.0000 86.5768 0.0000
v  -6.0000 386.5768 0.0000
v  -4.2426 86.5768 4.2426
v  -4.2427 386.5768 4.2426
v  -0.0000 86.5768 6.0000
v  -0.0000 386.5768 6.0000
v  4.2426 86.5768 4.2426
v  4.2426 386.5768 4.2426
v  4.2426 686.5768 -4.2426
v  5.9999 686.5768 -0.0000
v  -0.0001 686.5768 -6.0000
v  -4.2427 686.5768 -4.2426
v  -6.0001 686.5768 0.0000
v  -4.2427 686.5768 4.2426
v  -0.0001 686.5768 6.0000
v  4.2426 686.5768 4.2426
# 120 vertices

vn 0.0000 1.0000 0.0000
vn 0.0000 0.9239 0.3827
vn 0.0000 0.7071 0.7071
vn 0.0000 0.3827 0.9239
vn -0.0000 -0.0000 1.0000
vn -0.0000 -0.3827 0.9239
vn -0.0000 -0.7071 0.7071
vn -0.0000 -0.9239 0.3827
vn -0.0000 -1.0000 0.0000
vn -0.0000 -0.9239 -0.3827
vn -0.0000 -0.7071 -0.7071
vn -0.0000 -0.3827 -0.9239
vn 0.0000 0.0000 -1.0000
vn 0.0000 0.3827 -0.9239
vn 0.0000 0.7071 -0.7071
vn 0.0000 0.9239 -0.3827
vn -1.0000 0.0000 -0.0000
vn -1.0000 0.0000 0.0000
vn 1.0000 -0.0000 -0.0000
vn -0.0000 -0.0000 -1.0000
vn 0.0000 -0.0000 -1.0000
vn -0.0000 0.9239 -0.3827
vn 0.0000 1.0000 -0.0000
vn -0.0000 1.0000 -0.0000
vn 0.0000 -0.0000 1.0000
vn 0.0000 -0.9239 0.3827
vn -0.0000 -1.0000 -0.0000
vn 0.0000 -1.0000 -0.0000
vn 1.0000 0.0000 -0.0000
vn 0.7071 0.0000 -0.7071
vn -0.7071 -0.0000 -0.7071
vn -1.0000 -0.0000 0.0000
vn -1.0000 -0.0000 -0.0000
vn -0.7071 -0.0000 0.7071
vn 0.7071 0.0000 0.7071
# 35 vertex normals

vt 0.7500 0.5000 1.0000
vt 0.8125 0.5000 1.0000
vt 0.8125 0.0000 1.0000
vt 0.7500 0.0000 1.0000
vt 0.8750 0.5000 1.0000
vt 0.8750 0.0000 1.0000
vt 0.9375 0.5000 1.0000
vt 0.9375 0.0000 1.0000
vt 1.0000 0.5000 1.0000
vt 1.0000 0.0000 1.0000
vt 0.0000 0.0000 1.0000
vt 0.0000 0.5000 1.0000
vt 0.0625 0.5000 1.0000
vt 0.0625 0.0000 1.0000
vt 0.1250 0.5000 1.0000
vt 0.1250 0.0000 1.0000
vt 0.1875 0.5000 1.0000
vt 0.1875 0.0000 1.0000
vt 0.2500 0.5000 1.0000
vt 0.2500 0.0000 1.0000
vt 0.3125 0.5000 1.0000
vt 0.3125 0.0000 1.0000
vt 0.3750 0.5000 1.0000
vt 0.3750 0.0000 1.0000
vt 0.4375 0.5000 1.0000
vt 0.4375 0.0000 1.0000
vt 0.5000 0.5000 1.0000
vt 0.5000 0.0000 1.0000
vt 0.5625 0.5000 1.0000
vt 0.5625 0.0000 1.0000
vt 0.6250 0.5000 1.0000
vt 0.6250 0.0000 1.0000
vt 0.6875 0.5000 1.0000
vt 0.6875 0.0000 1.0000
vt 0.7500 1.0000 1.0000
vt 0.8125 1.0000 1.0000
vt 0.8750 1.0000 1.0000
vt 0.9375 1.0000 1.0000
vt 1.0000 1.0000 1.0000
vt 0.0000 1.0000 1.0000
vt 0.0625 1.0000 1.0000
vt 0.1250 1.0000 1.0000
vt 0.1875 1.0000 1.0000
vt 0.2500 1.0000 1.0000
vt 0.3125 1.0000 1.0000
vt 0.3750 1.0000 1.0000
vt 0.4375 1.0000 1.0000
vt 0.5000 1.0000 1.0000
vt 0.5625 1.0000 1.0000
vt 0.6250 1.0000 1.0000
vt 0.6875 1.0000 1.0000
# 51 texture coords

g Cylinder021
usemtl wire_027177027
s 4
f 1/1/1 2/2/2 3/3/2 4/4/1 
f 3/3/2 2/2/2 5/5/3 6/6/3 
f 6/6/3 5/5/3 7/7/4 8/8/4 
f 8/8/4 7/7/4 9/9/5 10/10/5 
f 10/11/5 9/12/5 11/13/6 12/14/6 
f 12/14/6 11/13/6 13/15/7 14/16/7 
f 14/16/7 13/15/7 15/17/8 16/18/8 
f 16/18/8 15/17/8 17/19/9 18/20/9 
f 18/20/9 17/19/9 19/21/10 20/22/10 
f 20/22/10 19/21/10 21/23/11 22/24/11 
f 22/24/11 21/23/11 23/25/12 24/26/12 
f 24/26/12 23/25/12 25/27/13 26/28/13 
f 26/28/13 25/27/13 27/29/14 28/30/14 
f 28/30/14 27/29/14 29/31/15 30/32/15 
f 30/32/15 29/31/15 31/33/16 32/34/16 
f 31/33/16 1/1/1 4/4/1 32/34/16 
f 1/1/1 33/35/1 34/36/2 2/2/2 
f 2/2/2 34/36/2 35/37/3 5/5/3 
f 5/5/3 35/37/3 36/38/4 7/7/4 
f 7/7/4 36/38/4 37/39/5 9/9/5 
f 9/12/5 37/40/5 38/41/6 11/13/6 
f 11/13/6 38/41/6 39/42/7 13/15/7 
f 13/15/7 39/42/7 40/43/8 15/17/8 
f 15/17/8 40/43/8 41/44/9 17/19/9 
f 17/19/9 41/44/9 42/45/10 19/21/10 
f 19/21/10 42/45/10 43/46/11 21/23/11 
f 21/23/11 43/46/11 44/47/12 23/25/12 
f 23/25/12 44/47/12 45/48/13 25/27/13 
f 25/27/13 45/48/13 46/49/14 27/29/14 
f 27/29/14 46/49/14 47/50/15 29/31/15 
f 29/31/15 47/50/15 48/51/16 31/33/16 
f 31/33/16 48/51/16 33/35/1 1/1/1 
s 1
f 49/4/17 4/4/17 3/3/18 50/3/18 
f 50/3/18 3/3/18 6/6/17 51/6/17 
f 51/6/17 6/6/17 8/8/17 52/8/17 
f 52/8/17 8/8/17 10/10/17 53/10/17 
f 53/11/17 10/11/17 12/14/17 54/14/17 
f 54/14/17 12/14/17 14/16/17 55/16/17 
f 55/16/17 14/16/17 16/18/17 56/18/17 
f 56/18/17 16/18/17 18/20/17 57/20/17 
f 57/20/17 18/20/17 20/22/18 58/22/18 
f 58/22/18 20/22/18 22/24/17 59/24/17 
f 59/24/17 22/24/17 24/26/17 60/26/17 
f 60/26/17 24/26/17 26/28/17 61/28/17 
f 61/28/17 26/28/17 28/30/17 62/30/17 
f 62/30/17 28/30/17 30/32/17 63/32/17 
f 63/32/17 30/32/17 32/34/17 64/34/17 
f 64/34/17 32/34/17 4/4/17 49/4/17 
f 65/36/19 34/36/19 33/35/19 66/35/19 
f 67/37/19 35/37/19 34/36/19 65/36/19 
f 68/38/19 36/38/19 35/37/19 67/37/19 
f 69/39/19 37/39/19 36/38/19 68/38/19 
f 70/41/19 38/41/19 37/40/19 69/40/19 
f 71/42/19 39/42/19 38/41/19 70/41/19 
f 72/43/19 40/43/19 39/42/19 71/42/19 
f 73/44/19 41/44/19 40/43/19 72/43/19 
f 74/45/19 42/45/19 41/44/19 73/44/19 
f 75/46/19 43/46/19 42/45/19 74/45/19 
f 76/47/19 44/47/19 43/46/19 75/46/19 
f 77/48/19 45/48/19 44/47/19 76/47/19 
f 78/49/19 46/49/19 45/48/19 77/48/19 
f 79/50/19 47/50/19 46/49/19 78/49/19 
f 80/51/19 48/51/19 47/50/19 79/50/19 
f 66/35/19 33/35/19 48/51/19 80/51/19 
s 4
f 65/36/10 81/2/10 82/5/11 67/37/11 
f 67/37/11 82/5/11 83/7/12 68/38/12 
f 68/38/12 83/7/12 84/12/20 69/40/21 
f 69/40/21 84/12/20 85/13/14 70/41/14 
f 70/41/14 85/13/14 86/15/15 71/42/15 
f 71/42/15 86/15/15 87/17/16 72/43/22 
f 72/43/22 87/17/16 88/19/23 73/44/24 
f 73/44/24 88/19/23 89/21/2 74/45/2 
f 74/45/2 89/21/2 90/23/3 75/46/3 
f 75/46/3 90/23/3 91/25/4 76/47/4 
f 76/47/4 91/25/4 92/27/25 77/48/5 
f 77/48/5 92/27/25 93/29/6 78/49/6 
f 78/49/6 93/29/6 94/31/7 79/50/7 
f 79/50/7 94/31/7 95/33/8 80/51/26 
f 80/51/26 95/33/8 96/1/27 66/35/28 
f 66/35/28 96/1/27 81/2/10 65/36/10 
f 50/3/10 51/6/11 82/5/11 81/2/10 
f 51/6/11 52/8/12 83/7/12 82/5/11 
f 52/8/12 53/11/21 84/12/20 83/7/12 
f 53/11/21 54/14/14 85/13/14 84/12/20 
f 54/14/14 55/16/15 86/15/15 85/13/14 
f 55/16/15 56/18/16 87/17/16 86/15/15 
f 56/18/16 57/20/23 88/19/23 87/17/16 
f 57/20/23 58/22/2 89/21/2 88/19/23 
f 58/22/2 59/24/3 90/23/3 89/21/2 
f 59/24/3 60/26/4 91/25/4 90/23/3 
f 60/26/4 61/28/5 92/27/25 91/25/4 
f 61/28/5 62/30/6 93/29/6 92/27/25 
f 62/30/6 63/32/7 94/31/7 93/29/6 
f 63/32/7 64/34/8 95/33/8 94/31/7 
f 64/34/8 49/4/27 96/1/27 95/33/8 
f 49/4/27 50/3/10 81/2/10 96/1/27 
s 8
f 97/4/29 98/6/30 99/5/30 100/1/29 
f 98/6/30 101/10/13 102/9/20 99/5/30 
f 101/11/13 103/16/31 104/15/31 102/12/20 
f 103/16/31 105/20/32 106/19/33 104/15/31 
f 105/20/32 107/24/34 108/23/34 106/19/33 
f 107/24/34 109/28/25 110/27/5 108/23/34 
f 109/28/25 111/32/35 112/31/35 110/27/5 
f 111/32/35 97/4/29 100/1/29 112/31/35 
f 100/1/29 99/5/30 113/37/30 114/35/29 
f 99/5/30 102/9/20 115/39/20 113/37/30 
f 102/12/20 104/15/31 116/42/31 115/40/20 
f 104/15/31 106/19/33 117/44/33 116/42/31 
f 106/19/33 108/23/34 118/46/34 117/44/33 
f 108/23/34 110/27/5 119/48/5 118/46/34 
f 110/27/5 112/31/35 120/50/35 119/48/5 
f 112/31/35 100/1/29 114/35/29 120/50/35 
# 112 polygons

